<svg width="24" height="19" viewBox="0 0 24 19" fill="none" xmlns="http://www.w3.org/2000/svg">
<path d="M20.175 6.85C21.525 6.55 22.5 5.35 22.5 4C22.5 2.35 21.15 1 19.575 1C18.45 1 17.475 1.675 16.95 2.575" stroke="#1EA59A" stroke-width="2" stroke-linecap="round" stroke-linejoin="round"/>
<path d="M7.125 2.65C6.6 1.675 5.625 1 4.425 1C2.85 1 1.5 2.35 1.5 3.925C1.5 5.35 2.55 6.55 3.9 6.85" stroke="#1EA59A" stroke-width="2" stroke-linecap="round" stroke-linejoin="round"/>
<path d="M11.475 5.19995V10.075" stroke="#1EA59A" stroke-width="2" stroke-linecap="round" stroke-linejoin="round"/>
<path d="M14.475 10.075H11.475" stroke="#1EA59A" stroke-width="2" stroke-linecap="round" stroke-linejoin="round"/>
<path fill-rule="evenodd" clip-rule="evenodd" d="M20.025 9.025C20.025 13.45 16.425 17.05 12 17.05C7.49999 17.125 3.89999 13.525 3.89999 9.025C3.89999 4.6 7.49999 1 11.925 1C16.425 1 20.025 4.6 20.025 9.025Z" stroke="#1EA59A" stroke-width="2" stroke-linecap="round" stroke-linejoin="round"/>
</svg>
